PathFileType	4	(X/Y/Z)	D:\TRACE\spotREDO_2-26-24\spot_justBody_Motion_2_5-v60.trc
DataRate	CameraRate	NumFrames	NumMarkers	Units	OrigDataRate	OrigDataStartFrame	OrigNumFrames
100.00	100.00	      28	9	mm	100.00	4376	      7000
Frame#	Time	front left toe			Front right toe			aft left toe			aft right toe			Arm			FL body			FR body			AL Body			AR Body			
		X1	Y1	Z1	X2	Y2	Z2	X3	Y3	Z3	X4	Y4	Z4	X5	Y5	Z5	X6	Y6	Z6	X7	Y7	Z7	X8	Y8	Z8	X9	Y9	Z9	

4376	43.750	-126.15394	22.31190	-20.89803	300.18408	37.09843	-88.84662	-134.95543	-20.16806	471.14023	397.60205	108.98459	387.17792	15.18371	813.96881	-241.93799	-70.16334	554.63812	-217.33795	84.69827	556.65076	-240.01985	48.72403	527.59094	657.95081	195.84811	525.67700	639.09521	
4377	43.760	-126.92156	22.20415	-21.06967	298.76935	37.08014	-88.56521	-135.82182	-19.97579	471.14655	397.63824	117.39651	384.45303	14.51857	814.06201	-241.95447	-70.50428	554.52795	-217.45543	84.00698	556.80304	-240.52324	47.59804	527.12451	657.92487	194.64249	524.92786	638.90771	
4378	43.770	-127.73700	22.00540	-21.07895	298.33252	37.43945	-88.53495	-136.25314	-19.92779	471.28687	396.57300	124.05532	379.55020	13.80715	813.82660	-242.15547	-70.95379	554.54968	-217.91820	83.74956	556.67908	-240.42894	46.71638	526.43573	657.77362	193.87721	524.64374	638.88080	
4379	43.780	-128.45422	21.89445	-21.29807	297.83429	37.20364	-88.48594	-137.14488	-19.84463	471.14404	396.29465	127.95670	376.39117	13.43108	813.46088	-242.40359	-71.37762	554.64050	-218.25735	83.51833	556.77966	-240.53090	46.07308	525.92828	657.53882	193.43445	524.30200	638.78674	
4380	43.790	-129.14677	21.83690	-21.20878	295.61484	36.65439	-89.00758	-138.22719	-19.86498	471.35013	392.84238	127.87642	374.14972	12.56874	813.96735	-242.35564	-71.94336	554.91937	-218.48155	83.25086	556.95703	-240.61929	45.75255	525.42255	657.38092	193.16136	523.65820	638.50110	
4381	43.800	-130.22717	22.16792	-21.46908	295.60785	36.70612	-88.78307	-138.96391	-19.64664	471.36847	390.30566	126.25263	373.22882	12.40383	814.39618	-242.03825	-72.31667	555.25708	-218.52077	82.77229	557.22412	-240.71841	45.40314	525.01862	657.14270	192.91504	522.97565	638.49353	
4382	43.810	-131.05052	22.33467	-21.64761	294.86356	36.44764	-88.89768	-139.60750	-19.31538	471.10892	387.92081	123.88789	372.06531	12.65761	814.67145	-241.75955	-72.67870	555.75873	-218.42876	82.10658	557.51337	-240.81772	45.18646	524.58789	657.12164	192.69777	522.40393	638.26886	
4383	43.820	-131.67310	22.37915	-21.66345	293.32178	36.17859	-89.03655	-140.43492	-19.07233	470.93036	385.90521	123.46003	370.33109	12.83707	815.03400	-241.36003	-73.22741	556.23163	-218.20836	81.72494	557.72156	-240.83952	45.00486	524.32343	657.03839	192.40407	521.69122	638.12445	
4384	43.830	-132.34993	22.38597	-21.50009	292.21741	35.95831	-89.08073	-141.15694	-18.82306	470.84366	384.22189	123.05550	368.26950	12.79251	815.29407	-241.03331	-73.45577	556.45050	-218.06050	81.29196	557.98071	-240.75320	44.65144	523.78369	657.14703	192.51410	521.29956	638.50012	
4385	43.840	-133.36900	22.43613	-21.67812	293.46887	36.69199	-88.78856	-141.99588	-18.40494	470.84198	382.81769	123.18888	366.23157	12.34809	815.42847	-240.85483	-73.81568	556.69208	-217.97577	81.09995	558.16534	-240.57147	44.41143	523.27484	657.24188	191.89302	520.81635	638.25543	
4386	43.850	-134.22716	22.47961	-21.77320	290.79407	35.82657	-89.31029	-142.76050	-18.00826	470.81259	381.39630	122.97012	364.34543	11.87222	815.67969	-240.79851	-73.97739	556.96771	-217.82736	80.89867	558.34460	-240.44623	44.09022	522.95532	657.29382	191.76985	520.52509	638.44977	
4387	43.860	-134.92979	22.41678	-22.11243	291.36224	36.09705	-89.61044	-143.74136	-17.53319	470.79089	379.62054	122.00173	362.64789	11.72046	815.84497	-240.55183	-74.14227	557.09589	-217.60312	80.64220	558.37653	-240.32439	43.92688	522.72351	657.42834	191.82979	520.24829	638.64899	
4388	43.870	-135.74240	22.41459	-22.26208	292.00803	37.11482	-89.29935	-144.22560	-17.19029	470.83392	377.62567	119.72585	360.51056	11.68383	815.95605	-240.19411	-74.18918	557.10516	-217.53911	80.38602	558.43323	-240.17313	43.86260	522.65649	657.65619	191.58223	520.02484	638.84100	
4389	43.880	-137.03389	22.28081	-22.09329	290.92224	36.77513	-89.53259	-144.99277	-16.94254	470.77756	375.13727	114.78205	358.14917	11.58715	816.06836	-239.82018	-74.29673	557.26312	-217.33607	80.22584	558.54706	-239.98329	43.88751	522.55157	658.01703	191.35802	519.82928	639.10754	
4390	43.890	-137.54852	22.10343	-22.22070	287.38928	35.17677	-89.52427	-146.48070	-16.17709	470.49484	373.85938	107.69020	355.73813	11.53462	816.36322	-239.47142	-74.47784	557.69983	-217.16452	80.06872	558.87775	-239.70731	43.73030	522.40063	658.35669	191.05818	519.56989	639.29761	
4391	43.900	-138.34984	22.21699	-22.39827	287.61456	35.24484	-89.94859	-147.22516	-15.89227	470.42416	371.54980	97.96020	353.22342	11.54147	816.77588	-239.01056	-74.64725	558.12817	-216.90991	80.17752	559.39679	-239.26439	43.49545	522.13788	658.62848	190.90186	519.31726	639.65723	
4392	43.910	-139.51407	22.75542	-22.71984	288.37573	35.82433	-89.30597	-148.09911	-15.33222	470.44803	371.13300	87.39500	351.77551	11.93688	817.14655	-238.19991	-74.66247	558.55658	-216.37263	80.19340	559.84119	-238.80354	43.34527	521.80560	658.79279	190.87146	519.08344	639.86090	
4393	43.920	-140.17267	22.57253	-22.79656	287.13068	35.67025	-90.07359	-149.07741	-14.91565	470.51892	368.37491	75.47298	350.56116	12.00816	817.77600	-237.56381	-74.80103	559.08282	-215.77469	80.14680	560.22198	-238.43124	43.47245	521.38989	659.21649	190.76643	518.67261	640.28058	
4394	43.930	-141.06169	22.85460	-22.90238	285.46286	34.90211	-90.24491	-150.12433	-14.51366	470.70258	367.51080	64.28377	350.21643	11.98164	818.43628	-237.09456	-75.33697	559.93628	-215.91797	80.05519	560.64020	-238.09018	43.36589	521.10150	659.52356	191.14890	517.99377	640.78113	
4395	43.940	-142.20882	23.28987	-23.48627	284.52411	34.62286	-90.47353	-150.67284	-14.28775	470.59680	365.47867	53.04997	349.42334	12.10900	818.90070	-236.41072	-74.96615	560.32050	-215.03580	79.93440	561.05066	-237.80148	43.47004	520.82373	660.03345	191.06233	517.77716	641.08960	
4396	43.950	-142.93439	23.43976	-23.83338	283.37222	34.48983	-90.78954	-151.75706	-13.47567	470.36853	365.12442	42.71540	349.17825	12.24015	819.38092	-235.52235	-74.97348	560.68103	-214.64296	79.86024	561.47980	-237.27838	43.50479	520.72754	660.42401	191.08597	517.68512	641.32135	
4397	43.960	-143.70680	23.23649	-23.81680	283.34799	35.19150	-90.95968	-152.47429	-12.79606	470.25354	364.19528	32.28700	348.82712	12.25445	819.67291	-235.28381	-75.01622	561.01367	-214.04929	79.92778	561.94763	-236.62021	43.54841	520.75299	660.83026	191.21298	517.47723	641.72437	
4398	43.970	-144.72423	22.68288	-23.65789	278.71631	33.65563	-91.36851	-153.93288	-11.91169	470.11414	363.83121	21.80609	348.03186	12.27392	819.84900	-234.85733	-75.04153	561.29651	-213.61839	79.88061	562.13428	-236.28629	44.09356	520.44189	661.17267	190.99440	517.40320	642.27899	
4399	43.980	-145.98412	22.66768	-23.49553	280.59595	33.64792	-91.14149	-154.66461	-11.46480	470.06686	363.39380	11.53237	347.81799	12.34116	820.22400	-233.94951	-75.00623	561.94366	-213.68660	80.14215	562.47992	-235.78938	43.92845	520.33264	661.85052	191.18936	517.12756	642.92798	
4400	43.990	-146.87654	22.78771	-24.07243	279.09848	33.21442	-91.20237	-155.48740	-11.07709	470.05515	362.96503	5.85899	345.27661	12.56073	820.57874	-233.26544	-75.14535	562.62274	-213.39148	80.30752	562.84778	-235.25291	43.83017	520.04327	662.30225	190.92313	516.85266	643.34613	
4401	44.000	-147.81271	22.34900	-24.15444	279.15662	33.72596	-90.84051	-156.63321	-10.11927	469.52878	362.95203	5.65842	345.56766	12.63147	821.04486	-232.58978	-74.14674	561.93390	-212.44147	80.82633	563.18585	-234.63435	42.67048	520.59381	662.73700	190.35184	517.96533	644.26367	
4402	44.010	-148.99471	21.42981	-24.56743	277.01544	34.03255	-90.94794	-157.45612	-9.33500	469.54065	363.11176	6.80130	347.56506	12.43971	821.17426	-232.14789	-73.28784	561.56732	-211.97710	81.07934	563.39264	-234.07675	42.11420	521.61469	663.42389	189.29158	519.74243	644.94086	
4403	44.020	-150.02704	21.88745	-24.45508	276.31613	33.14959	-91.50644	-159.04237	-8.63431	469.33359	360.98126	7.35569	346.78180	11.86974	821.10663	-231.80533	-72.67171	561.85419	-211.58963	82.18621	563.80328	-233.42744	41.61434	522.45081	664.21283	189.15215	520.67163	645.83594	
